<?xml version="1.0" encoding="UTF-8" standalone="no"?>
<!-- Created with Inkscape (http://www.inkscape.org/) -->

<svg
   xmlns:dc="http://purl.org/dc/elements/1.1/"
   xmlns:cc="http://creativecommons.org/ns#"
   xmlns:rdf="http://www.w3.org/1999/02/22-rdf-syntax-ns#"
   xmlns:svg="http://www.w3.org/2000/svg"
   xmlns="http://www.w3.org/2000/svg"
   xmlns:sodipodi="http://sodipodi.sourceforge.net/DTD/sodipodi-0.dtd"
   xmlns:inkscape="http://www.inkscape.org/namespaces/inkscape"
   version="1.1"
   width="56"
   height="140"
   id="svg3356"
   inkscape:version="0.48.4 r9939"
   sodipodi:docname="13.svg">
  <sodipodi:namedview
     pagecolor="#ffffff"
     bordercolor="#666666"
     borderopacity="1"
     objecttolerance="10"
     gridtolerance="10"
     guidetolerance="10"
     inkscape:pageopacity="0"
     inkscape:pageshadow="2"
     inkscape:window-width="1855"
     inkscape:window-height="1056"
     id="namedview8"
     showgrid="false"
     inkscape:snap-center="false"
     showguides="true"
     inkscape:guide-bbox="true"
     inkscape:zoom="4.5849535"
     inkscape:cx="-2.0082034"
     inkscape:cy="69.406779"
     inkscape:window-x="65"
     inkscape:window-y="24"
     inkscape:window-maximized="1"
     inkscape:current-layer="svg3356" />
  <metadata
     id="metadata3362">
    <rdf:RDF>
      <cc:Work
         rdf:about="">
        <dc:format>image/svg+xml</dc:format>
        <dc:type
           rdf:resource="http://purl.org/dc/dcmitype/StillImage" />
        <dc:title />
      </cc:Work>
    </rdf:RDF>
  </metadata>
  <defs
     id="defs3360" />
  <g
     transform="matrix(1.1304354,0,0,1.0736616,9.1318536,21.527191)"
     id="Page-1_1_">
    <path
       d="M 28.188,1.549 C 24.823,-1.816 21.657,1.351 21.657,1.351 L 9.583,13.424 c 0,0 -4.552,4.552 -0.198,8.907 4.354,4.355 8.907,-0.198 8.907,-0.198 L 30.365,10.06 C 30.86,9.565 29.87,8.576 29.375,9.07 L 17.302,21.143 c 0,0 -3.563,3.563 -6.927,0.198 -3.365,-3.365 0.198,-6.927 0.198,-6.927 L 22.646,2.34 c 0,0 2.177,-2.177 4.552,0.198 2.375,2.375 0.198,4.552 0.198,4.552 L 15.323,19.164 c 0,0 -1.583,1.583 -2.969,0.198 -1.386,-1.385 0.198,-2.969 0.198,-2.969 l 6.935,-7.114 c 0.495,-0.495 -0.495,-1.484 -0.99,-0.99 l -6.935,7.114 c 0,0 -2.573,2.573 -0.198,4.948 2.375,2.375 4.948,-0.198 4.948,-0.198 L 28.386,8.08 c 0,0 3.167,-3.167 -0.198,-6.531 0,0 3.365,3.364 0,0 l 0,0 0,0 z"
       id="attachment_paper_clip_2_1_"
       style="fill:#dd2837"
       inkscape:connector-curvature="0" />
  </g>
  <path
     d="M 39.30011,69.566353 C 35.496195,65.953482 31.917236,69.353768 31.917236,69.353768 L 18.268359,82.316081 c 0,0 -5.145742,4.88731 -0.223826,9.56311 4.921916,4.67579 10.068788,-0.21259 10.068788,-0.21259 l 13.647747,-12.96232 c 0.559565,-0.53146 -0.559566,-1.59331 -1.119131,-1.06292 L 26.99419,90.603681 c 0,0 -4.027741,3.82545 -7.830526,0.21258 -3.803915,-3.61287 0.223826,-7.43725 0.223826,-7.43725 l 13.647747,-12.96232 c 0,0 2.460958,-2.337359 5.145742,0.21259 2.684784,2.54994 0.223826,4.8873 0.223826,4.8873 l -13.647747,12.96232 c 0,0 -1.789478,1.69961 -3.356262,0.21259 -1.565653,-1.48703 0.223826,-3.18771 0.223826,-3.18771 l 7.839569,-7.63803 c 0.559566,-0.53146 -0.559565,-1.59331 -1.11913,-1.06292 l -7.83957,7.63803 c 0,0 -2.90861,2.76253 -0.223826,5.31248 2.684784,2.54994 5.593394,-0.21259 5.593394,-0.21259 l 13.647747,-12.96231 c 0.0011,0 3.581219,-3.40029 -0.222696,-7.012088 0,0 3.803915,3.611798 0,0 l 0,0 0,0 z"
     id="attachment_paper_clip_2_2_"
     inkscape:connector-curvature="0" />
</svg>
