<?xml version="1.0" encoding="utf-8"?>
<!-- Generator: Adobe Illustrator 17.0.0, SVG Export Plug-In . SVG Version: 6.00 Build 0)  -->
<!DOCTYPE svg PUBLIC "-//W3C//DTD SVG 1.1//EN" "http://www.w3.org/Graphics/SVG/1.1/DTD/svg11.dtd">
<svg version="1.1"
	 id="svg3356" xmlns:cc="http://creativecommons.org/ns#" xmlns:svg="http://www.w3.org/2000/svg" xmlns:sodipodi="http://sodipodi.sourceforge.net/DTD/sodipodi-0.dtd" xmlns:rdf="http://www.w3.org/1999/02/22-rdf-syntax-ns#" xmlns:inkscape="http://www.inkscape.org/namespaces/inkscape" xmlns:dc="http://purl.org/dc/elements/1.1/" sodipodi:docname="13.svg" inkscape:version="0.48.4 r9939"
	 xmlns="http://www.w3.org/2000/svg" xmlns:xlink="http://www.w3.org/1999/xlink" x="0px" y="0px" width="16px" height="16px"
	 viewBox="17 0 16 16" style="enable-background:new 17 0 16 16;" xml:space="preserve">
<sodipodi:namedview  inkscape:cy="69.406779" inkscape:cx="-2.0082034" pagecolor="#ffffff" objecttolerance="10" borderopacity="1" gridtolerance="10" bordercolor="#666666" id="namedview8" guidetolerance="10" showguides="true" showgrid="false" inkscape:zoom="4.5849535" inkscape:current-layer="svg3356" inkscape:window-maximized="1" inkscape:window-y="24" inkscape:window-x="65" inkscape:snap-center="false" inkscape:pageopacity="0" inkscape:guide-bbox="true" inkscape:window-height="1056" inkscape:pageshadow="2" inkscape:window-width="1855">
	</sodipodi:namedview>
<path inkscape:connector-curvature="0" d="M31.392,1.023L31.392,1.023"/>
<path inkscape:connector-curvature="0" d="M31.392,1.023L31.392,1.023"/>
<g>
	<path d="M17.895,14.239c1.193,1.193,3.135,1.194,4.329,0l6.926-6.925c0.348-0.344,0.54-0.806,0.542-1.298
		c0.003-0.983-0.857-1.843-1.841-1.841c-0.492,0.001-0.954,0.194-1.3,0.544l-6.058,6.058c-0.239,0.24-0.239,0.627,0,0.866
		c0.239,0.239,0.627,0.239,0.866,0l6.06-6.06c0.118-0.118,0.271-0.182,0.436-0.183c0.328,0,0.613,0.286,0.613,0.613
		c-0.001,0.164-0.065,0.318-0.181,0.433l-6.928,6.928c-0.716,0.717-1.881,0.717-2.597,0c-0.716-0.715-0.716-1.881,0-2.597
		l7.791-7.791c1.193-1.193,3.136-1.193,4.329,0c1.193,1.193,1.193,3.136,0,4.329l-6.06,6.06c-0.239,0.239-0.239,0.626,0,0.866
		c0.239,0.239,0.627,0.239,0.866,0l6.06-6.059c1.671-1.671,1.671-4.39,0-6.06c-1.67-1.671-4.389-1.671-6.06,0L17.895,9.91
		C16.702,11.104,16.702,13.045,17.895,14.239z"/>
</g>
</svg>
