<?xml version="1.0" encoding="utf-8"?>
<!-- Generator: Adobe Illustrator 15.0.2, SVG Export Plug-In . SVG Version: 6.00 Build 0)  -->
<!DOCTYPE svg PUBLIC "-//W3C//DTD SVG 1.1//EN" "http://www.w3.org/Graphics/SVG/1.1/DTD/svg11.dtd">
<svg version="1.1" xmlns="http://www.w3.org/2000/svg" xmlns:xlink="http://www.w3.org/1999/xlink" x="0px" y="0px" width="30px"
	 height="60px" viewBox="0 0 30 60" enable-background="new 0 0 30 60" xml:space="preserve">
<g id="Слой_1">
	<g>
		<path fill="#CD120C" d="M9,0C4.029,0,0,4.03,0,9c0,4.971,4.029,9,9,9c4.972,0,9-4.029,9-9C18,4.03,13.972,0,9,0z M9,16.031
			c-3.877,0-7.031-3.154-7.031-7.031S5.123,1.969,9,1.969S16.031,5.123,16.031,9S12.877,16.031,9,16.031z"/>
		<path fill="#CD120C" d="M13.348,8.942L9.559,8.945V4.175c0-0.466-0.379-0.844-0.844-0.844c-0.467,0-0.844,0.378-0.844,0.844v6.061
			c0,0.465,0.377,0.844,0.844,0.844c0.186,0,0.356-0.063,0.496-0.165l4.138-0.003c0.542,0,0.983-0.44,0.983-0.984
			C14.332,9.384,13.891,8.942,13.348,8.942z"/>
	</g>
</g>
<g id="Слой_1__x28_копия_x29_">
	<g>
		<path d="M9,42c-4.971,0-9,4.031-9,9c0,4.971,4.029,9,9,9c4.972,0,9-4.029,9-9C18,46.031,13.972,42,9,42z M9,58.031
			c-3.877,0-7.031-3.154-7.031-7.031S5.123,43.969,9,43.969s7.031,3.154,7.031,7.031S12.877,58.031,9,58.031z"/>
		<path d="M13.348,50.943l-3.789,0.002v-4.77c0-0.467-0.379-0.844-0.844-0.844c-0.467,0-0.844,0.377-0.844,0.844v6.061
			c0,0.465,0.377,0.844,0.844,0.844c0.186,0,0.356-0.063,0.496-0.166l4.138-0.002c0.542,0,0.983-0.441,0.983-0.984
			S13.891,50.943,13.348,50.943z"/>
	</g>
</g>
</svg>
