<?xml version="1.0" encoding="utf-8"?>
<!-- Generator: Adobe Illustrator 17.0.0, SVG Export Plug-In . SVG Version: 6.00 Build 0)  -->
<!DOCTYPE svg PUBLIC "-//W3C//DTD SVG 1.1//EN" "http://www.w3.org/Graphics/SVG/1.1/DTD/svg11.dtd">
<svg version="1.1" id="Layer_1" xmlns="http://www.w3.org/2000/svg" xmlns:xlink="http://www.w3.org/1999/xlink" x="0px" y="0px"
	 width="22px" height="58.967px" viewBox="0 0 22 58.967" enable-background="new 0 0 22 58.967" xml:space="preserve">
<g id="Слой_1">
	<g>
		<g>
			<g>
				<path fill="#DD2837" d="M7.614,0c2.188,0,3.961,1.773,3.961,3.961c0,2.186-1.773,3.959-3.961,3.959
					c-2.186,0-3.957-1.773-3.957-3.959C3.657,1.773,5.428,0,7.614,0"/>
				<path fill="#DD2837" d="M9.56,12.639c-0.325-1.011-0.399-2.113-0.214-3.165C8.802,9.656,8.223,9.766,7.614,9.766
					c-1.323,0-2.532-0.47-3.446-1.239C0,8.526,0.018,12.246,0,15.127h6.142C6.84,13.924,7.979,12.985,9.56,12.639z"/>
			</g>
			<g>
				<path fill="#DD2837" d="M14.38,5.764c2.189,0,3.962,1.774,3.962,3.962c0,2.187-1.772,3.959-3.962,3.959
					c-2.186,0-3.957-1.773-3.957-3.959C10.424,7.538,12.195,5.764,14.38,5.764"/>
				<path fill="#DD2837" d="M17.833,14.29c-0.916,0.77-2.127,1.24-3.453,1.24c-1.322,0-2.531-0.471-3.446-1.24
					c-4.168,0-4.149,3.721-4.168,6.602H22C21.983,18.01,22,14.29,17.833,14.29z"/>
			</g>
		</g>
	</g>
</g>
<g id="Слой_1__x28_копия_x29_">
	<g>
		<g>
			<g>
				<path d="M7.614,38.076c2.188,0,3.961,1.773,3.961,3.961c0,2.187-1.773,3.96-3.961,3.96c-2.186,0-3.957-1.773-3.957-3.96
					C3.657,39.85,5.428,38.076,7.614,38.076"/>
				<path d="M9.56,50.715c-0.325-1.01-0.399-2.113-0.214-3.164c-0.543,0.182-1.123,0.291-1.732,0.291
					c-1.323,0-2.532-0.471-3.446-1.239c-4.168,0-4.15,3.72-4.168,6.601h6.142C6.84,52,7.979,51.061,9.56,50.715z"/>
			</g>
			<g>
				<path d="M14.38,43.84c2.189,0,3.962,1.773,3.962,3.962c0,2.187-1.772,3.96-3.962,3.96c-2.186,0-3.957-1.773-3.957-3.96
					C10.424,45.613,12.195,43.84,14.38,43.84"/>
				<path d="M17.833,52.365c-0.916,0.77-2.127,1.24-3.453,1.24c-1.322,0-2.531-0.471-3.446-1.24c-4.168,0-4.149,3.721-4.168,6.602
					H22C21.983,56.086,22,52.365,17.833,52.365z"/>
			</g>
		</g>
	</g>
</g>
</svg>
