<?xml version="1.0" encoding="utf-8"?>
<!-- Generator: Adobe Illustrator 15.0.2, SVG Export Plug-In . SVG Version: 6.00 Build 0)  -->
<!DOCTYPE svg PUBLIC "-//W3C//DTD SVG 1.1//EN" "http://www.w3.org/Graphics/SVG/1.1/DTD/svg11.dtd">
<svg version="1.1" xmlns="http://www.w3.org/2000/svg" xmlns:xlink="http://www.w3.org/1999/xlink" x="0px" y="0px" width="30px"
	 height="60px" viewBox="0 0 30 60" enable-background="new 0 0 30 60" xml:space="preserve">
<g id="Слой_1">
	<g>
		<polygon fill="#CD120C" points="14.369,1.35 9.313,1.35 9.313,0 6.436,0 6.436,1.35 1.379,1.35 1.379,3.16 14.369,3.16 		"/>
		<path fill="#CD120C" d="M14.369,4.137L14.369,4.137H1.379l0,0H0v1.811h1.492L2.371,20h11.006l0.879-14.053h1.491V4.137H14.369z
			 M4.088,18.172L3.324,5.964h1.614l0.254,12.208H4.088z M8.428,18.172H7.319L7.068,5.964h1.61L8.428,18.172z M11.66,18.172h-1.104
			L10.81,5.964h1.614L11.66,18.172z"/>
	</g>
</g>
<g id="Слой_1__x28_копия_x29_">
	<g>
		<polygon points="14.369,41.35 9.313,41.35 9.313,40 6.436,40 6.436,41.35 1.379,41.35 1.379,43.16 14.369,43.16 		"/>
		<path d="M14.369,44.137L14.369,44.137H1.379l0,0H0v1.811h1.492L2.371,60h11.006l0.879-14.053h1.491v-1.811H14.369z M4.088,58.172
			L3.324,45.965h1.614l0.254,12.207H4.088z M8.428,58.172H7.319L7.068,45.965h1.61L8.428,58.172z M11.66,58.172h-1.104l0.254-12.207
			h1.614L11.66,58.172z"/>
	</g>
</g>
</svg>
