<?xml version="1.0" encoding="utf-8"?>
<!-- Generator: Adobe Illustrator 17.0.0, SVG Export Plug-In . SVG Version: 6.00 Build 0)  -->
<!DOCTYPE svg PUBLIC "-//W3C//DTD SVG 1.1//EN" "http://www.w3.org/Graphics/SVG/1.1/DTD/svg11.dtd">
<svg version="1.1" id="Layer_1" xmlns="http://www.w3.org/2000/svg" xmlns:xlink="http://www.w3.org/1999/xlink" x="0px" y="0px"
	 width="20px" height="15.79px" viewBox="0 44.21 20 15.79" style="enable-background:new 0 44.21 20 15.79;" xml:space="preserve">
<g id="Слой_1__x28_копия_x29_">
	<path id="path6511_1_" d="M8.421,44.21C3.158,44.21,0,48.421,0,50.526c0,2.104,1.053,3.684,3.158,3.684
		c2.104,0,3.157,0.526,3.157,2.105C6.315,58.421,7.895,60,10,60c6.843,0,10-3.685,10-7.369C20,46.315,14.736,44.21,8.421,44.21
		L8.421,44.21z M6.899,46.322c0.828,0,1.5,0.671,1.5,1.5c0,0.828-0.672,1.5-1.5,1.5c-0.829,0-1.5-0.672-1.5-1.5
		C5.399,46.993,6.07,46.322,6.899,46.322z M11.316,46.131c0.828,0,1.499,0.672,1.499,1.5c0,0.829-0.671,1.501-1.499,1.501
		c-0.829,0-1.501-0.672-1.501-1.501C9.815,46.803,10.487,46.131,11.316,46.131z M15.526,48.236c0.828,0,1.5,0.672,1.5,1.5
		s-0.672,1.5-1.5,1.5c-0.829,0-1.5-0.672-1.5-1.5S14.698,48.236,15.526,48.236z M3.421,49.289c0.828,0,1.5,0.671,1.5,1.5
		c0,0.828-0.672,1.5-1.5,1.5s-1.5-0.672-1.5-1.5S2.593,49.289,3.421,49.289z M10,54.315c1.104,0,2,0.896,2,2s-0.896,2-2,2
		s-2-0.896-2-2S8.896,54.315,10,54.315L10,54.315z"/>
</g>
</svg>
