<?xml version="1.0" encoding="utf-8"?>
<!-- Generator: Adobe Illustrator 15.0.2, SVG Export Plug-In . SVG Version: 6.00 Build 0)  -->
<!DOCTYPE svg PUBLIC "-//W3C//DTD SVG 1.1//EN" "http://www.w3.org/Graphics/SVG/1.1/DTD/svg11.dtd">
<svg version="1.1" xmlns="http://www.w3.org/2000/svg" xmlns:xlink="http://www.w3.org/1999/xlink" x="0px" y="0px" width="15px"
	 height="15px" viewBox="0 0 15 15" enable-background="new 0 0 15 15" xml:space="preserve">
<g id="Слой_1">
	<path fill="#CD120C" d="M14.559,2.772L12.22,0.434c-0.568-0.569-1.488-0.579-2.045-0.024c0,0.001,0,0.002-0.001,0.003V0.411
		L1.647,8.938l-0.172,0.17L0,15l5.887-1.477l0.549-0.56l0,0l8.146-8.146H14.58c0.001-0.001,0.001-0.001,0.002-0.002
		C15.137,4.261,15.126,3.34,14.559,2.772z M2.08,9.701l3.218,3.218l-3.021,0.757l-0.943-0.993L2.08,9.701z M5.889,10.928
		L4.064,9.103l6.109-6.109l1.824,1.825L5.889,10.928z"/>
</g>
<g id="Слой_1__x28_копия_x29_">
	<path fill="#666666" d="M14.559,47.771l-2.339-2.338c-0.568-0.57-1.488-0.58-2.045-0.025c0,0.002,0,0.002-0.001,0.004V45.41
		l-8.526,8.527l-0.172,0.17L0,60l5.887-1.477l0.549-0.561l0,0l8.146-8.146H14.58c0.001,0,0.001,0,0.002-0.002
		C15.137,49.26,15.126,48.34,14.559,47.771z M2.08,54.701l3.218,3.217l-3.021,0.758l-0.943-0.994L2.08,54.701z M5.889,55.928
		l-1.824-1.826l6.109-6.109l1.824,1.826L5.889,55.928z"/>
</g>
</svg>
