<?xml version="1.0" encoding="utf-8"?>
<!-- Generator: Adobe Illustrator 15.0.2, SVG Export Plug-In . SVG Version: 6.00 Build 0)  -->
<!DOCTYPE svg PUBLIC "-//W3C//DTD SVG 1.1//EN" "http://www.w3.org/Graphics/SVG/1.1/DTD/svg11.dtd">
<svg version="1.1" xmlns="http://www.w3.org/2000/svg" xmlns:xlink="http://www.w3.org/1999/xlink" x="0px" y="0px" width="15px"
	 height="15px" viewBox="0 0 15 15" enable-background="new 0 0 15 15" xml:space="preserve">
	<path fill="#CD120C" d="M14.559-42.227l-2.339-2.339c-0.568-0.569-1.488-0.579-2.045-0.024c0,0.001,0,0.002-0.001,0.003v-0.001
		l-8.526,8.526l-0.172,0.17L0-29.999l5.887-1.477l0.549-0.56l0,0l8.146-8.146H14.58c0.001-0.001,0.001-0.001,0.002-0.002
		C15.137-40.738,15.126-41.659,14.559-42.227z M2.08-35.298l3.218,3.218l-3.021,0.757l-0.943-0.993L2.08-35.298z M5.889-34.071
		l-1.824-1.825l6.109-6.109l1.824,1.825L5.889-34.071z"/>
	<path fill="#666666" d="M14.559,2.772L12.22,0.435c-0.568-0.57-1.488-0.58-2.045-0.025c0,0.002,0,0.002-0.001,0.004V0.411
		L1.647,8.938l-0.172,0.17L0,15.001l5.887-1.477l0.549-0.561l0,0l8.146-8.146H14.58c0.001,0,0.001,0,0.002-0.002
		C15.137,4.261,15.126,3.341,14.559,2.772z M2.08,9.702l3.218,3.217l-3.021,0.758l-0.943-0.994L2.08,9.702z M5.889,10.929
		L4.064,9.103l6.109-6.109l1.824,1.826L5.889,10.929z"/>
</svg>
