<?xml version="1.0" encoding="utf-8"?>
<!-- Generator: Adobe Illustrator 15.0.2, SVG Export Plug-In . SVG Version: 6.00 Build 0)  -->
<!DOCTYPE svg PUBLIC "-//W3C//DTD SVG 1.1//EN" "http://www.w3.org/Graphics/SVG/1.1/DTD/svg11.dtd">
<svg version="1.1" xmlns="http://www.w3.org/2000/svg" xmlns:xlink="http://www.w3.org/1999/xlink" x="0px" y="0px" width="30px"
	 height="60px" viewBox="0 0 30 60" enable-background="new 0 0 30 60" xml:space="preserve">
<g id="Слой_1">
	<g>
		<path fill="#CD120C" d="M1.129,16.871c1.506,1.506,3.955,1.507,5.461,0l8.737-8.736c0.439-0.435,0.682-1.018,0.684-1.638
			c0.004-1.241-1.082-2.325-2.323-2.322c-0.62,0.001-1.203,0.244-1.641,0.687l-7.643,7.642c-0.302,0.303-0.302,0.791,0,1.093
			c0.302,0.301,0.79,0.301,1.092,0l7.646-7.646c0.148-0.149,0.343-0.23,0.55-0.23c0.413,0,0.773,0.36,0.773,0.773
			c0,0.207-0.081,0.401-0.229,0.547l-8.74,8.739c-0.902,0.905-2.372,0.905-3.275,0c-0.904-0.902-0.904-2.373,0-3.276l9.829-9.829
			c1.505-1.505,3.955-1.505,5.46,0c1.506,1.506,1.506,3.956,0,5.461l-7.645,7.645c-0.302,0.302-0.302,0.79,0,1.092
			s0.791,0.302,1.092,0l7.645-7.644c2.109-2.108,2.109-5.538,0-7.646c-2.107-2.108-5.537-2.108-7.645,0l-9.829,9.829
			C-0.376,12.917-0.376,15.366,1.129,16.871z"/>
	</g>
</g>
<g id="Слой_1__x28_копия_x29_">
	<g>
		<path d="M1.129,58.87c1.506,1.506,3.955,1.507,5.461,0l8.737-8.736c0.439-0.435,0.682-1.018,0.684-1.638
			c0.004-1.241-1.082-2.325-2.323-2.322c-0.62,0.001-1.203,0.244-1.641,0.687l-7.643,7.642c-0.302,0.303-0.302,0.791,0,1.093
			c0.302,0.301,0.79,0.301,1.092,0l7.646-7.646c0.148-0.149,0.343-0.23,0.55-0.23c0.413,0,0.773,0.36,0.773,0.773
			c0,0.207-0.081,0.401-0.229,0.547l-8.74,8.739c-0.902,0.905-2.372,0.905-3.275,0c-0.904-0.902-0.904-2.373,0-3.276l9.829-9.829
			c1.505-1.505,3.955-1.505,5.46,0c1.506,1.506,1.506,3.956,0,5.461l-7.645,7.645c-0.302,0.302-0.302,0.79,0,1.092
			s0.791,0.302,1.092,0l7.645-7.644c2.109-2.108,2.109-5.538,0-7.646c-2.107-2.108-5.537-2.108-7.645,0L1.129,53.41
			C-0.376,54.916-0.376,57.365,1.129,58.87z"/>
	</g>
</g>
</svg>
