<?xml version="1.0" encoding="utf-8"?>
<!-- Generator: Adobe Illustrator 15.0.2, SVG Export Plug-In . SVG Version: 6.00 Build 0)  -->
<!DOCTYPE svg PUBLIC "-//W3C//DTD SVG 1.1//EN" "http://www.w3.org/Graphics/SVG/1.1/DTD/svg11.dtd">
<svg version="1.1" xmlns="http://www.w3.org/2000/svg" xmlns:xlink="http://www.w3.org/1999/xlink" x="0px" y="0px" width="30px"
	 height="60px" viewBox="0 0 30 60" enable-background="new 0 0 30 60" xml:space="preserve">
<g id="Слой_1">
	<path fill="#CD120C" d="M8.485,0L0.354,0.354L0,8.485l8.839,8.839l8.484-8.485L8.485,0z M5.479,5.48
		c-0.684,0.684-1.791,0.684-2.475,0s-0.684-1.791,0-2.475s1.791-0.684,2.475,0S6.163,4.797,5.479,5.48z"/>
</g>
<g id="Слой_1__x28_копия_x29_">
	<path d="M8.485,42.676L0.354,43.03L0,51.161L8.839,60l8.484-8.485L8.485,42.676z M5.479,48.156c-0.684,0.684-1.791,0.684-2.475,0
		s-0.684-1.791,0-2.475s1.791-0.684,2.475,0S6.163,47.473,5.479,48.156z"/>
</g>
</svg>
