<?xml version="1.0" encoding="utf-8"?>
<!-- Generator: Adobe Illustrator 15.0.2, SVG Export Plug-In . SVG Version: 6.00 Build 0)  -->
<!DOCTYPE svg PUBLIC "-//W3C//DTD SVG 1.1//EN" "http://www.w3.org/Graphics/SVG/1.1/DTD/svg11.dtd">
<svg version="1.1" xmlns="http://www.w3.org/2000/svg" xmlns:xlink="http://www.w3.org/1999/xlink" x="0px" y="0px" width="44px"
	 height="92.894px" viewBox="0 0 44 92.894" enable-background="new 0 0 44 92.894" xml:space="preserve">
<g id="Слой_1">
	<circle fill="#D8D8D8" cx="22" cy="22" r="22"/>
	<g>
		<path fill="#FFFFFF" d="M21.996,12.374c2.786,0,5.042,2.257,5.042,5.042c0,2.783-2.256,5.04-5.042,5.04
			c-2.782,0-5.036-2.257-5.036-5.04C16.96,14.63,19.214,12.374,21.996,12.374"/>
		<path fill="#FFFFFF" d="M26.391,23.225c-1.166,0.979-2.707,1.577-4.395,1.577c-1.684,0-3.223-0.598-4.386-1.577
			c-5.305,0-5.28,4.734-5.305,8.402h19.388C31.672,27.959,31.693,23.225,26.391,23.225z"/>
	</g>
</g>
<g id="Слой_1__x28_копия_x29_">
	<circle fill="#CD120C" cx="22" cy="70.901" r="22"/>
	<g>
		<path fill="#FFFFFF" d="M21.996,61.275c2.786,0,5.042,2.256,5.042,5.041c0,2.783-2.256,5.04-5.042,5.04
			c-2.782,0-5.036-2.257-5.036-5.04C16.96,63.531,19.214,61.275,21.996,61.275"/>
		<path fill="#FFFFFF" d="M26.391,72.126c-1.166,0.979-2.707,1.577-4.395,1.577c-1.684,0-3.223-0.598-4.386-1.577
			c-5.305,0-5.28,4.734-5.305,8.402h19.388C31.672,76.86,31.693,72.126,26.391,72.126z"/>
	</g>
</g>
</svg>
